<svg width="40" height="25" viewBox="0 0 40 25" fill="none" xmlns="http://www.w3.org/2000/svg">
  <rect width="40" height="25" rx="4" fill="#016FD0"/>
  <path d="M7 16.9315V8H15.4481L16.7407 9.50685L18.0333 8H33V16.9315H18.0333L16.7407 15.4247L15.4481 16.9315H7Z" fill="#EEEEEE"/>
  <path d="M16.7407 9.50684L15.4481 8H7V16.9315H15.4481L16.7407 15.4247L18.0333 16.9315H33V8H18.0333L16.7407 9.50684ZM9.57778 15.1507V9.78083H14.8L16.7407 11.9384L18.6815 9.78083H30.4222V15.1507H18.6815L16.7407 12.9932L14.8 15.1507H9.57778Z" fill="#016FD0"/>
  <path d="M16.7407 11.9384L14.8 9.78083H9.57778V15.1507H14.8L16.7407 12.9932L18.6815 15.1507H30.4222V9.78083H18.6815L16.7407 11.9384Z" fill="#EEEEEE"/>
  <path d="M19.3704 10.6055H22.5926V11.3425H19.963V12.2603H22.5185V12.9973H19.963V13.9863H22.5926V14.7233H19.3704V10.6055Z" fill="#016FD0"/>
  <path d="M22.5926 10.6055H24.4444L25.4815 12.1781L26.5185 10.6055H28.3704V14.7233H27.4074V11.7534L26.1148 14.7233H24.8222L23.5296 11.7534V14.7233H22.5926V10.6055Z" fill="#016FD0"/>
  <path d="M28.3704 10.6055H31.6667V11.3425H29V12.1233H31.5926V12.8603H29V14.7233H28.3704V10.6055Z" fill="#016FD0"/>
  <path d="M11.4445 14.7233H10.3334V10.6055H12.9075C14.2371 10.6055 14.9075 11.3151 14.9075 12.1644C14.9075 12.863 14.4075 13.4658 13.7371 13.5753L15.1112 14.7233H13.7371L12.537 13.6712H11.4445V14.7233ZM11.4445 12.8877H12.6667C13.1112 12.8877 13.7371 12.8055 13.7371 12.1644C13.7371 11.5616 13.2371 11.4247 12.7926 11.4247H11.4445V12.8877Z" fill="#016FD0"/>
  <path d="M15.1112 10.6055H16.2223L18.3334 13.726V10.6055H19.4075V14.7233H18.3334L16.2223 11.5753V14.7233H15.1112V10.6055Z" fill="#016FD0"/>
</svg>
