<svg width="40" height="25" viewBox="0 0 40 25" fill="none" xmlns="http://www.w3.org/2000/svg">
  <rect width="40" height="25" rx="4" fill="white"/>
  <path d="M15.5 10L12 17H9.5L8 11.5C7.9 11.1 7.7 11 7.3 10.9C6.7 10.7 5.7 10.5 5 10.4L5.1 10H9C9.5 10 9.8 10.3 9.9 10.8L10.7 15L12.8 10H15.5ZM26 14.5C26 12.8 23.7 12.7 23.7 12C23.7 11.7 24 11.4 24.6 11.4C25.1 11.3 25.9 11.5 26.5 11.7L27 10C26.4 9.8 25.7 9.6 24.8 9.6C22.5 9.6 20.8 10.8 20.8 12.5C20.8 13.7 22 14.2 22.9 14.5C23.8 14.8 24.1 15 24.1 15.3C24.1 15.7 23.6 16 22.9 16C22 16 21.1 15.8 20.3 15.4L19.9 17.2C20.7 17.6 21.7 17.8 22.8 17.8C25.2 17.8 27 16.7 27 14.9C27 14.8 27 14.7 26.9 14.5H26ZM34 17H36.5L34.5 10H32.3C31.8 10 31.4 10.3 31.3 10.7L28 17H30.7L31.1 15.8H33.7L34 17ZM31.7 14.3L32.7 11.5L33.3 14.3H31.7ZM20.6 10L18.5 17H16L18.1 10H20.6Z" fill="#172B85"/>
  <path d="M15.5 10L12 17H9.5L8 11.5C7.9 11.1 7.7 11 7.3 10.9C6.7 10.7 5.7 10.5 5 10.4L5.1 10H9C9.5 10 9.8 10.3 9.9 10.8L10.7 15L12.8 10H15.5Z" fill="#172B85"/>
  <path d="M16.5 14.5L17 14.7C17.3 14.9 17.7 15 18 15C18.5 15 18.9 14.7 18.9 14.2C18.9 13.8 18.7 13.5 18.3 13.3C18 13.2 17.8 13.1 17.7 13C17.5 12.8 17.4 12.6 17.4 12.4C17.4 11.8 17.9 11.3 18.5 11.3C18.9 11.3 19.2 11.4 19.5 11.7L19.1 12.2C18.9 12 18.7 12 18.5 12C18.1 12 17.8 12.2 17.8 12.5C17.8 12.8 18 13 18.3 13.1C18.6 13.2 18.8 13.3 18.9 13.5C19.1 13.7 19.2 14 19.2 14.2C19.2 14.9 18.7 15.4 18 15.4C17.5 15.4 17 15.2 16.7 14.9L16.5 14.5Z" fill="#F9A533"/>
</svg>
